<?xml version="1.0" encoding="utf-8"?>
<!-- Generator: Adobe Illustrator 21.1.0, SVG Export Plug-In . SVG Version: 6.00 Build 0)  -->
<svg version="1.1" id="Layer_1" xmlns="http://www.w3.org/2000/svg" xmlns:xlink="http://www.w3.org/1999/xlink" x="0px" y="0px"
	 viewBox="0 0 105 14" style="enable-background:new 0 0 105 14;" xml:space="preserve">
<style type="text/css">
	.st0{fill:#638CC7;}
	.st1{fill:#FFFFFF;}
</style>
<g>
	<path class="st0" d="M3.1,6.9H0l2.2-4.3h5.3V14H4.8V5.2H4L3.1,6.9z"/>
	<path class="st0" d="M24.3,2.6v2.7H11.8V7h9.6c2.3,0,3.4,0.9,3.4,2.7v1.6c0,1.8-1.1,2.8-3.4,2.8H8.9v-2.7h12.4
		c0.4,0,0.6-0.1,0.6-0.4V10c0-0.3-0.2-0.4-0.6-0.4H9v-7H24.3z"/>
	<path class="st1" d="M46.6,11.8h-9.3L36,14h-3.2l6-10.4c0.1-0.2,0.2-0.3,0.3-0.4c0.1-0.1,0.2-0.2,0.3-0.3c0.1-0.1,0.3-0.1,0.4-0.2
		c0.2,0,0.4-0.1,0.6-0.1h2.9c0.8,0,1.4,0.3,1.7,1l6,10.5h-3.2L46.6,11.8z M38.7,9.3h6.6l-2-3.5c-0.1-0.2-0.2-0.3-0.4-0.4
		c-0.1-0.1-0.3-0.1-0.4-0.1h-1.1c-0.3,0-0.6,0.2-0.8,0.5L38.7,9.3z"/>
	<path class="st1" d="M56.3,6.1c-0.2-0.2-0.4-0.4-0.7-0.6c-0.3-0.2-0.6-0.2-0.9-0.2h-0.1V14h-2.7V2.6h2.9c0.8,0,1.4,0.1,1.9,0.4
		c0.5,0.2,1,0.6,1.5,1.2l5.5,6.4c0.2,0.2,0.4,0.4,0.7,0.6c0.3,0.2,0.6,0.3,0.9,0.3h0.1V2.6h2.7V14h-2.9c-0.8,0-1.5-0.1-2-0.4
		c-0.5-0.3-1.1-0.7-1.5-1.2L56.3,6.1z"/>
	<path class="st1" d="M73.9,14c-2.9,0-4.3-1.2-4.3-3.6V6.2c0-2.4,1.4-3.6,4.3-3.6h8.9c2.9,0,4.3,1.2,4.3,3.6v4.1
		c0,2.4-1.4,3.6-4.3,3.6H73.9z M73.9,5.2c-1,0-1.5,0.3-1.5,1v4.1c0,0.6,0.5,1,1.5,1h8.9c1,0,1.5-0.3,1.5-1V6.2c0-0.7-0.5-1-1.5-1
		H73.9z"/>
	<path class="st1" d="M104.6,2.6v2.7H92c-0.4,0-0.7,0.1-0.7,0.4v0.9C91.3,6.8,91.5,7,92,7h9.6c2.3,0,3.4,0.9,3.4,2.7v1.6
		c0,1.8-1.2,2.8-3.5,2.8H88.9v-2.7h12.7c0.4,0,0.6-0.1,0.6-0.4V10c0-0.3-0.2-0.4-0.6-0.4H92c-2.3,0-3.5-0.8-3.5-2.4V5.4
		c0-1.9,1.2-2.8,3.5-2.8H104.6z"/>
	<path class="st1" d="M59.3,0.1c0.2,0,0.5,0,0.7,0.1c0.2,0,0.4,0.1,0.6,0.1c0.2,0.1,0.4,0.1,0.5,0.1c0.2,0,0.3,0.1,0.4,0.1
		c0.2,0,0.4-0.2,0.7-0.5l1.5,1.2c-0.6,0.6-1.3,0.9-2.1,0.9c-0.2,0-0.4,0-0.6-0.1c-0.2,0-0.4-0.1-0.6-0.1c-0.2,0-0.4-0.1-0.5-0.1
		c-0.2,0-0.3-0.1-0.5-0.1s-0.3,0-0.4,0.1c-0.1,0.1-0.3,0.2-0.4,0.4L57.2,1C57.8,0.4,58.5,0.1,59.3,0.1z"/>
</g>
</svg>
