<?xml version="1.0" encoding="utf-8"?>
<!-- Generator: Adobe Illustrator 21.1.0, SVG Export Plug-In . SVG Version: 6.00 Build 0)  -->
<svg version="1.1" id="Layer_1" xmlns="http://www.w3.org/2000/svg" xmlns:xlink="http://www.w3.org/1999/xlink" x="0px" y="0px"
	 viewBox="0 0 300 64" style="enable-background:new 0 0 300 64;" xml:space="preserve">
<style type="text/css">
	.st0{fill:#618AC6;}
	.st1{fill:#2D4874;}
	.st2{fill:#638CC7;}
	.st3{fill:#FFFFFF;}
</style>
<g>
	<g>
		<g>
			<g>
				<path class="st0" d="M42.1,63.5c-0.1,0-0.2-0.1-0.3-0.1C41.9,63.4,42,63.4,42.1,63.5z"/>
			</g>
			<g>
				<polygon class="st1" points="76.6,32 70.6,36.3 76.6,40.5 76.6,32 				"/>
				<polygon class="st1" points="48.6,41.3 56.1,46.5 56.1,59.6 65.3,53.1 65.3,53.1 74.6,46.5 48.6,28.2 				"/>
				<path class="st1" d="M15.3,32v13.1l23.7,16.7c1.7,1.3,4.2,2.2,7,2.2l0,0V53.7v0L15.3,32z"/>
			</g>
			<g>
				<polygon class="st0" points="48.6,28.2 48.6,28.2 48.6,28.2 				"/>
				<polygon class="st2" points="48.6,41.3 48.6,41.3 48.6,28.2 39.4,34.8 				"/>
				<path class="st2" d="M91.9,32c0-1.5-0.8-2.8-2.2-3.8l0,0L53,2.2c-1.7-1.3-4.2-2.2-7-2.2s-5.4,0.8-7,2.2l-36.8,26l0,0
					C0.8,29.2,0,30.5,0,32c0,1.5,0.8,2.8,2.2,3.8l0,0l13.1,9.3V32l0,0l0,0l30.7-21.7L76.6,32l0,0v8.5l3.2,2.3l9.9-7l0,0
					C91.1,34.8,91.9,33.5,91.9,32z"/>
				<path class="st2" d="M56.1,59.6V46.5l0,0l-10.1,7.2V64l0,0c2.8,0,5.4-0.8,7-2.2L56.1,59.6L56.1,59.6z"/>
			</g>
		</g>
		<g>
			<path class="st3" d="M137.6,19.2h-23.7c-4,0-7.3,3.3-7.3,7.3v11.1c0,4,3.3,7.3,7.3,7.3h23.7c4,0,7.3-3.3,7.3-7.3V26.5
				C144.9,22.5,141.6,19.2,137.6,19.2z M139.3,36.7c0,1.3-1.1,2.4-2.4,2.4h-22.3c-1.3,0-2.4-1.1-2.4-2.4V27c0-1.3,1.1-2.4,2.4-2.4
				h22.3c1.3,0,2.4,1.1,2.4,2.4V36.7z"/>
			<path class="st3" d="M183.5,39.1h-27.4c-1.3,0-2.4-1.1-2.4-2.4V27c0-1.3,1.1-2.4,2.4-2.4h27.4v-5.4h-28c-4,0-7.3,3.3-7.3,7.3
				v11.1c0,4,3.3,7.3,7.3,7.3h28V39.1z"/>
			<path class="st3" d="M194.7,24.6H222v-5.4h-28c-4,0-7.3,3.3-7.3,7.3v11.1c0,4,3.3,7.3,7.3,7.3h28v-5.7h-27.4
				c-1.3,0-2.4-1.1-2.4-2.4v-2H222v-5.4h-29.8V27C192.2,25.7,193.3,24.6,194.7,24.6z"/>
			<path class="st3" d="M249.9,20.9c0,0-0.5-0.9-1.3-1.3c-0.7-0.4-1.6-0.4-1.6-0.4h-0.7h-0.8h-0.7h-2.6h-0.7h-0.8H240
				c0,0-0.9,0-1.6,0.4c-0.7,0.4-1.3,1.3-1.3,1.3l-13.5,23.9h6.8l3.1-5.5h6.4h7.3h6.4l3.1,5.5h6.8L249.9,20.9z M247.2,34h-7.3h-3.4
				l4.9-8.7c0,0,0.2-0.4,0.5-0.5c0.2-0.1,0.5-0.1,0.7-0.1h0.1h1.7h0.1c0.1,0,0.5,0,0.7,0.1c0.3,0.2,0.5,0.5,0.5,0.5l4.9,8.7H247.2z"
				/>
			<path class="st3" d="M294.6,19.2v20.2h-1.1c0,0-0.6,0-1-0.1c-0.4-0.2-0.7-0.6-0.7-0.6l-15.6-18.2c0,0-0.5-0.7-1.4-1
				c-1-0.4-2.1-0.3-2.1-0.3h-7.6v25.6h5.4V24.6h1.5c0,0,0.3,0,0.6,0.1c0.3,0.1,0.4,0.4,0.4,0.4l15.8,18.4c0,0,0.6,0.7,1.5,1
				c0.9,0.3,2.1,0.3,2.1,0.3h7.6V19.2H294.6z"/>
		</g>
	</g>
</g>
</svg>
