<?xml version="1.0" encoding="utf-8"?>
<!-- Generator: Adobe Illustrator 21.1.0, SVG Export Plug-In . SVG Version: 6.00 Build 0)  -->
<svg version="1.1" id="Layer_1" xmlns="http://www.w3.org/2000/svg" xmlns:xlink="http://www.w3.org/1999/xlink" x="0px" y="0px"
	 viewBox="0 0 300 64" style="enable-background:new 0 0 300 64;" xml:space="preserve">
<style type="text/css">
	.st0{fill:#FFFFFF;}
	.st1{fill:#618AC6;}
	.st2{fill:#3D562C;}
	.st3{fill:#9CBF58;}
</style>
<g>
	<path class="st0" d="M112.2,51.7h2.9l1.9,5.9c0.1,0.3,0.2,0.4,0.3,0.4h0.2c0.2,0,0.3-0.1,0.3-0.4l1-5.9h1.8l-1.4,7.2
		c0,0.2-0.1,0.3-0.2,0.4c-0.1,0.1-0.2,0.2-0.3,0.3c-0.1,0.1-0.2,0.1-0.3,0.2c-0.1,0-0.2,0.1-0.3,0.1h-1.3c-0.3,0-0.5-0.1-0.8-0.3
		c-0.2-0.2-0.4-0.4-0.5-0.7l-1.7-5.3h-0.6l-1.7,5.3c-0.1,0.3-0.3,0.5-0.5,0.7s-0.5,0.3-0.8,0.3h-1.3c-0.2,0-0.5-0.1-0.7-0.3
		s-0.3-0.4-0.4-0.7l-1.4-7.2h1.8l1,5.9c0,0.3,0.1,0.4,0.3,0.4h0.2c0.1,0,0.3-0.1,0.3-0.4L112.2,51.7z"/>
	<path class="st0" d="M127.2,51.7h2.9l1.9,5.9c0.1,0.3,0.2,0.4,0.3,0.4h0.2c0.2,0,0.3-0.1,0.3-0.4l1-5.9h1.8l-1.4,7.2
		c0,0.2-0.1,0.3-0.2,0.4c-0.1,0.1-0.2,0.2-0.3,0.3s-0.2,0.1-0.3,0.2c-0.1,0-0.2,0.1-0.3,0.1h-1.3c-0.3,0-0.5-0.1-0.8-0.3
		c-0.2-0.2-0.4-0.4-0.5-0.7l-1.7-5.3h-0.6l-1.7,5.3c-0.1,0.3-0.3,0.5-0.5,0.7s-0.5,0.3-0.8,0.3h-1.3c-0.2,0-0.5-0.1-0.7-0.3
		s-0.3-0.4-0.4-0.7l-1.4-7.2h1.8l1,5.9c0,0.3,0.1,0.4,0.3,0.4h0.2c0.1,0,0.3-0.1,0.3-0.4L127.2,51.7z"/>
	<path class="st0" d="M142.3,51.7h2.9l1.9,5.9c0.1,0.3,0.2,0.4,0.3,0.4h0.2c0.2,0,0.3-0.1,0.3-0.4l1-5.9h1.8l-1.4,7.2
		c0,0.2-0.1,0.3-0.2,0.4c-0.1,0.1-0.2,0.2-0.3,0.3s-0.2,0.1-0.3,0.2c-0.1,0-0.2,0.1-0.3,0.1H147c-0.3,0-0.5-0.1-0.8-0.3
		c-0.2-0.2-0.4-0.4-0.5-0.7l-1.7-5.3h-0.6l-1.7,5.3c-0.1,0.3-0.3,0.5-0.5,0.7s-0.5,0.3-0.8,0.3h-1.3c-0.2,0-0.5-0.1-0.7-0.3
		s-0.3-0.4-0.4-0.7l-1.4-7.2h1.8l1,5.9c0,0.3,0.1,0.4,0.3,0.4h0.2c0.1,0,0.3-0.1,0.3-0.4L142.3,51.7z"/>
	<path class="st0" d="M151.6,58.5h1.7v1.3h-1.7V58.5z"/>
	<path class="st0" d="M164.8,54.8v3c0,1.3-0.7,2-2.1,2h-5.9c-1.4,0-2.1-0.7-2.1-2v-4.2c0-1.3,0.7-2,2.1-2h7.8v1.9h-7.8
		c-0.3,0-0.4,0.1-0.4,0.4v3.6c0,0.3,0.1,0.4,0.4,0.4h5.9c0.3,0,0.4-0.1,0.4-0.4v-2.7H164.8z"/>
	<path class="st0" d="M166.7,51.7h8.2c1.3,0,2,0.7,2,2v0.7c0,1.4-0.7,2.1-2,2.1h-0.6l2.8,3.4h-2.3l-2.6-3.3h-3.8v3.3h-1.7
		L166.7,51.7L166.7,51.7z M168.3,53.6v1.3h6.6c0.2,0,0.3-0.1,0.3-0.3v-0.7c0-0.2-0.1-0.3-0.4-0.3H168.3z"/>
	<path class="st0" d="M186.6,57.9c0.3,0,0.4-0.1,0.4-0.3v-6h1.7v6.2c0,1.3-0.7,2-2.1,2h-6c-1.4,0-2.1-0.7-2.1-2v-6.2h1.7v5.9
		c0,0.2,0.1,0.3,0.4,0.3L186.6,57.9L186.6,57.9z"/>
	<path class="st0" d="M192.2,56.9v2.9h-1.7v-8.1h7.2c1.4,0,2.1,0.7,2.1,2v1.2c0,1.3-0.7,2-2,2C197.8,56.9,192.2,56.9,192.2,56.9z
		 M192.2,53.6V55h5.5c0.3,0,0.4-0.1,0.4-0.3v-0.8c0-0.2-0.1-0.3-0.4-0.3C197.7,53.6,192.2,53.6,192.2,53.6z"/>
	<path class="st0" d="M204,59.8c-1.7,0-2.6-0.9-2.6-2.6v-3c0-1.7,0.9-2.6,2.6-2.6h5.3c1.7,0,2.6,0.9,2.6,2.6v3
		c0,1.7-0.9,2.6-2.6,2.6H204z M204,53.6c-0.6,0-0.9,0.2-0.9,0.7v3c0,0.5,0.3,0.7,0.9,0.7h5.3c0.6,0,0.9-0.2,0.9-0.7v-3
		c0-0.5-0.3-0.7-0.9-0.7H204z"/>
	<path class="st0" d="M223.5,57.9v1.9h-7.8c-1.4,0-2.1-0.7-2.1-2v-4.2c0-1.3,0.7-2,2.1-2h7.7v1.9h-7.7c-0.3,0-0.4,0.1-0.4,0.4v3.6
		c0,0.3,0.1,0.4,0.4,0.4C215.7,57.9,223.5,57.9,223.5,57.9z"/>
	<path class="st0" d="M235,57.9v1.9h-7.5c-1.4,0-2.1-0.7-2.1-2v-4.2c0-1.3,0.7-2,2.1-2h7.5v1.9h-7.5c-0.3,0-0.4,0.1-0.4,0.4v0.8h7.8
		v1.9h-7.8v0.8c0,0.3,0.1,0.4,0.4,0.4L235,57.9L235,57.9z"/>
	<path class="st0" d="M244.6,58.2H239l-0.7,1.6h-1.9l3.6-7.5c0.1-0.1,0.1-0.2,0.2-0.3c0.1-0.1,0.1-0.2,0.2-0.2
		c0.1-0.1,0.2-0.1,0.3-0.1s0.2,0,0.4,0h1.7c0.5,0,0.8,0.2,1,0.7l3.6,7.5h-1.9L244.6,58.2z M239.9,56.4h3.9l-1.2-2.5
		c-0.1-0.1-0.1-0.2-0.2-0.3c-0.1-0.1-0.2-0.1-0.2-0.1h-0.7c-0.2,0-0.3,0.1-0.5,0.4L239.9,56.4z"/>
	<path class="st0" d="M251.4,54.2c-0.1-0.2-0.3-0.3-0.4-0.4c-0.2-0.1-0.4-0.2-0.5-0.2h-0.1v6.3h-1.6v-8.1h1.7c0.5,0,0.8,0.1,1.1,0.3
		s0.6,0.5,0.9,0.8l3.3,4.5c0.1,0.2,0.3,0.3,0.4,0.4s0.3,0.2,0.5,0.2h0.1v-6.3h1.6v8.1h-1.7c-0.5,0-0.9-0.1-1.2-0.3s-0.6-0.5-0.9-0.9
		L251.4,54.2z"/>
	<path class="st0" d="M260.3,58.5h1.7v1.3h-1.7V58.5z"/>
	<path class="st0" d="M273.4,57.9v1.9h-7.8c-1.4,0-2.1-0.7-2.1-2v-4.2c0-1.3,0.7-2,2.1-2h7.7v1.9h-7.7c-0.3,0-0.4,0.1-0.4,0.4v3.6
		c0,0.3,0.1,0.4,0.4,0.4C265.6,57.9,273.4,57.9,273.4,57.9z"/>
	<path class="st0" d="M277.8,59.8c-1.7,0-2.6-0.9-2.6-2.6v-3c0-1.7,0.9-2.6,2.6-2.6h5.3c1.7,0,2.6,0.9,2.6,2.6v3
		c0,1.7-0.9,2.6-2.6,2.6H277.8z M277.8,53.6c-0.6,0-0.9,0.2-0.9,0.7v3c0,0.5,0.3,0.7,0.9,0.7h5.3c0.6,0,0.9-0.2,0.9-0.7v-3
		c0-0.5-0.3-0.7-0.9-0.7H277.8z"/>
	<path class="st0" d="M287.5,51.7h1.7c0.3,0,0.5,0,0.7,0.1s0.4,0.1,0.6,0.3c0.2,0.1,0.3,0.3,0.5,0.5c0.1,0.2,0.3,0.4,0.4,0.7l2,4.7
		h0.5l2-4.7c0.1-0.3,0.3-0.5,0.4-0.7s0.3-0.4,0.5-0.5s0.4-0.2,0.6-0.3s0.4-0.1,0.7-0.1h1.7v8.1H298v-6.3l0,0c-0.1,0-0.2,0-0.3,0.1
		c-0.1,0.1-0.2,0.2-0.2,0.3l-2.5,5.8h-2.7l-2.5-5.8c-0.1-0.1-0.1-0.2-0.2-0.3s-0.2-0.1-0.3-0.1h-0.1v6.3h-1.6L287.5,51.7L287.5,51.7
		z"/>
	<path class="st0" d="M137.6,19.2h-23.7c-4,0-7.3,3.3-7.3,7.3v11.1c0,4,3.3,7.3,7.3,7.3h23.7c4,0,7.3-3.3,7.3-7.3V26.5
		C144.9,22.5,141.6,19.2,137.6,19.2z M139.3,36.7c0,1.3-1.1,2.4-2.4,2.4h-22.3c-1.3,0-2.4-1.1-2.4-2.4V27c0-1.3,1.1-2.4,2.4-2.4
		h22.3c1.3,0,2.4,1.1,2.4,2.4V36.7z"/>
	<path class="st0" d="M183.5,39.1h-27.4c-1.3,0-2.4-1.1-2.4-2.4V27c0-1.3,1.1-2.4,2.4-2.4h27.4v-5.4h-28c-4,0-7.3,3.3-7.3,7.3v11.1
		c0,4,3.3,7.3,7.3,7.3h28V39.1z"/>
	<path class="st0" d="M194.7,24.6H222v-5.4h-28c-4,0-7.3,3.3-7.3,7.3v11.1c0,4,3.3,7.3,7.3,7.3h28v-5.7h-27.4
		c-1.3,0-2.4-1.1-2.4-2.4v-2H222v-5.4h-29.8V27C192.2,25.7,193.3,24.6,194.7,24.6z"/>
	<path class="st0" d="M249.9,20.9c0,0-0.5-0.9-1.3-1.3c-0.7-0.4-1.6-0.4-1.6-0.4h-0.7h-0.8h-0.7h-2.6h-0.7h-0.8H240
		c0,0-0.9,0-1.6,0.4c-0.7,0.4-1.3,1.3-1.3,1.3l-13.5,23.9h6.8l3.1-5.5h6.4h7.3h6.4l3.1,5.5h6.8L249.9,20.9z M247.2,34h-7.3h-3.4
		l4.9-8.7c0,0,0.2-0.4,0.5-0.5c0.2-0.1,0.5-0.1,0.7-0.1h0.1h1.7h0.1c0.1,0,0.5,0,0.7,0.1c0.3,0.2,0.5,0.5,0.5,0.5l4.9,8.7H247.2z"/>
	<path class="st0" d="M294.6,19.2v20.2h-1.1c0,0-0.6,0-1-0.1c-0.4-0.2-0.7-0.6-0.7-0.6l-15.6-18.2c0,0-0.5-0.7-1.4-1
		c-1-0.4-2.1-0.3-2.1-0.3h-7.6v25.6h5.4V24.6h1.5c0,0,0.3,0,0.6,0.1c0.3,0.1,0.4,0.4,0.4,0.4l15.8,18.4c0,0,0.6,0.7,1.5,1
		s2.1,0.3,2.1,0.3h7.6V19.2H294.6z"/>
	<path class="st1" d="M42.1,63.5c-0.1,0-0.2-0.1-0.3-0.1C41.9,63.4,42,63.4,42.1,63.5z"/>
	<polygon class="st2" points="76.6,32 70.6,36.3 76.6,40.5 	"/>
	<polygon class="st2" points="48.6,41.3 56.1,46.5 56.1,59.6 65.3,53.1 65.3,53.1 74.6,46.5 48.6,28.2 	"/>
	<path class="st2" d="M15.3,32v13.1L39,61.8c1.7,1.3,4.2,2.2,7,2.2l0,0V53.7l0,0L15.3,32z"/>
	<path class="st1" d="M48.6,28.2L48.6,28.2L48.6,28.2z"/>
	<polygon class="st3" points="48.6,41.3 48.6,41.3 48.6,28.2 39.4,34.8 	"/>
	<path class="st3" d="M91.9,32c0-1.5-0.8-2.8-2.2-3.8l0,0L53,2.2C51.3,0.9,48.8,0,46,0s-5.4,0.8-7,2.2l-36.8,26l0,0
		C0.8,29.2,0,30.5,0,32s0.8,2.8,2.2,3.8l0,0l13.1,9.3V32l0,0l0,0L46,10.3L76.6,32l0,0v8.5l3.2,2.3l9.9-7l0,0
		C91.1,34.8,91.9,33.5,91.9,32z"/>
	<path class="st3" d="M56.1,59.6V46.5l0,0L46,53.7V64l0,0c2.8,0,5.4-0.8,7-2.2L56.1,59.6L56.1,59.6z"/>
</g>
</svg>
